<svg xmlns="http://www.w3.org/2000/svg" xmlns:xlink="http://www.w3.org/1999/xlink" width="770" height="717" viewBox="0 0 770 717"><defs><style>.a{clip-path:url(#b);}.b{fill:#e5e5e5;}.c{fill:#cecece;stroke:#e5e5e5;}.c,.j,.m{stroke-width:2px;}.d,.f,.g,.i,.l,.n{fill:#151515;}.d{font-size:22px;}.d,.f{font-family:RedHatText-Bold, Red Hat Text;font-weight:700;}.e{fill:#fff;}.f,.i{font-size:16px;}.g{font-size:18px;}.g,.i,.n{font-family:RedHatText-Medium, Red Hat Text;}.g,.i,.l,.n{font-weight:500;}.h,.j{fill:#d6e4f5;}.j{stroke:#fff;}.k{fill:#221f1f;}.l,.n{font-size:12px;}.l{font-family:RedHatText-MediumItalic, Red Hat Text;font-style:italic;}.m,.r{fill:none;}.m{stroke:#53adce;}.o{fill:#231f20;}.p{fill:#010101;}.q{stroke:none;}</style><clipPath id="b"><rect width="770" height="717"/></clipPath></defs><g id="a" class="a"><rect class="e" width="770" height="717"/><rect class="b" width="770" height="527" transform="translate(0 27)"/><g class="c" transform="translate(310 170)"><rect class="q" width="240" height="367"/><rect class="r" x="1" y="1" width="238" height="365"/></g><g class="c" transform="translate(300 160)"><rect class="q" width="240" height="367"/><rect class="r" x="1" y="1" width="238" height="365"/></g><g class="c" transform="translate(290 150)"><rect class="q" width="240" height="367"/><rect class="r" x="1" y="1" width="238" height="365"/></g><text class="d" transform="translate(20 70)"><tspan x="0" y="0">Kubernetes cluster</tspan></text><rect class="e" width="240" height="256" transform="translate(20 140)"/><rect class="e" width="240" height="367" transform="translate(280 140)"/><text class="f" transform="translate(35 173)"><tspan x="0" y="0">Master node</tspan></text><text class="f" transform="translate(295 173)"><tspan x="0" y="0">Worker node</tspan></text><text class="g" transform="translate(20 115)"><tspan x="0" y="0">Control plane</tspan></text><text class="g" transform="translate(385 614)"><tspan x="-106.425" y="0">Underlying infrastructure</tspan></text><text class="g" transform="translate(280 115)"><tspan x="0" y="0">Compute machines</tspan></text><rect class="e" width="10" height="565" transform="translate(570 9)"/><rect class="h" width="210" height="40" transform="translate(35 189)"/><rect class="h" width="210" height="40" transform="translate(295 188)"/><rect class="h" width="210" height="40" transform="translate(295 238)"/><rect class="h" width="210" height="40" transform="translate(35 239)"/><rect class="h" width="210" height="40" transform="translate(35 289)"/><text class="i" transform="translate(140 265)"><tspan x="-58.704" y="0">kube-scheduler</tspan></text><text class="i" transform="translate(140 314)"><tspan x="-95.048" y="0">kube-controller-manager</tspan></text><text class="i" transform="translate(140 215)"><tspan x="-57.072" y="0">kube-apiserver</tspan></text><text class="i" transform="translate(153 367)"><tspan x="0" y="0">etcd</tspan></text><text class="i" transform="translate(400 214)"><tspan x="-28.152" y="0">kubelet</tspan></text><text class="i" transform="translate(400 264)"><tspan x="-43.056" y="0">kube-proxy</tspan></text><text class="i" transform="translate(400 319)"><tspan x="-68.12" y="0">Container runtime</tspan></text><rect class="e" width="150" height="233" transform="translate(600 48)"/><rect class="e" width="150" height="233" transform="translate(600 301)"/><g class="j" transform="translate(334 364)"><rect class="q" width="162" height="109"/><rect class="r" x="1" y="1" width="160" height="107"/></g><g class="j" transform="translate(324 354)"><rect class="q" width="162" height="109"/><rect class="r" x="1" y="1" width="160" height="107"/></g><g class="j" transform="translate(314 344)"><rect class="q" width="162" height="109"/><rect class="r" x="1" y="1" width="160" height="107"/></g><g class="j" transform="translate(304 334)"><rect class="q" width="162" height="109"/><rect class="r" x="1" y="1" width="160" height="107"/></g><text class="i" transform="translate(385 360)"><tspan x="-14.904" y="0">Pod</tspan></text><text class="f" transform="translate(675 79)"><tspan x="-41.016" y="0">Persistant</tspan><tspan x="-30.584" y="21">storage</tspan></text><text class="f" transform="translate(675 332)"><tspan x="-39.232" y="0">Container</tspan><tspan x="-31.592" y="21">registry</tspan></text><g transform="translate(321 375)"><g transform="translate(0 0)"><path class="k" d="M65.772,67.786H65a.386.386,0,0,1,0-.771h.771a.386.386,0,1,1,0,.771Zm-2.313,0h-.771a.386.386,0,1,1,0-.771h.771a.386.386,0,0,1,0,.771Zm-2.313,0h-.771a.386.386,0,1,1,0-.771h.771a.386.386,0,1,1,0,.771Zm-2.27,0h-.771a.386.386,0,1,1,0-.771h.771a.386.386,0,1,1,0,.771Zm-2.313,0h-.771a.386.386,0,0,1,0-.771h.771a.386.386,0,1,1,0,.771Zm-2.313,0h-.771a.386.386,0,1,1,0-.771h.771a.386.386,0,1,1,0,.771Zm-2.313,0h-.771a.386.386,0,1,1,0-.771h.771a.386.386,0,1,1,0,.771Zm-2.313,0h-.771a.386.386,0,1,1,0-.771h.771a.386.386,0,1,1,0,.771Zm-2.313,0H46.54a.386.386,0,1,1,0-.771h.771a.386.386,0,1,1,0,.771Zm-2.313,0h-.771a.386.386,0,1,1,0-.771H45a.386.386,0,1,1,0,.771Zm-2.313-.043H42.6a1.356,1.356,0,0,1-.814-.728.394.394,0,0,1,.728-.3.453.453,0,0,0,.3.257.343.343,0,0,1,.257.471A.367.367,0,0,1,42.685,67.743Zm24.5-.386c-.086,0-.129,0-.171-.043a.359.359,0,0,1-.129-.514.386.386,0,0,0,.043-.214v-.343a.386.386,0,0,1,.771,0v.343a.983.983,0,0,1-.171.6A.529.529,0,0,1,67.186,67.357Zm-25.1-1.628a.384.384,0,0,1-.386-.385v-.771a.386.386,0,0,1,.771,0v.771A.384.384,0,0,1,42.085,65.73Zm25.186-.643a.384.384,0,0,1-.385-.385v-.771a.386.386,0,1,1,.771,0V64.7A.384.384,0,0,1,67.272,65.087ZM42.085,63.417a.384.384,0,0,1-.386-.386V62.26a.386.386,0,0,1,.771,0v.771A.384.384,0,0,1,42.085,63.417Zm25.186-.643a.384.384,0,0,1-.385-.386v-.771a.386.386,0,0,1,.771,0v.771A.384.384,0,0,1,67.272,62.774ZM42.085,61.1a.384.384,0,0,1-.386-.385v-.771a.386.386,0,0,1,.771,0v.771A.384.384,0,0,1,42.085,61.1Zm25.186-.642a.384.384,0,0,1-.385-.386V59.3a.386.386,0,1,1,.771,0v.771A.384.384,0,0,1,67.272,60.461ZM42.085,58.791a.384.384,0,0,1-.386-.386v-.771a.386.386,0,0,1,.771,0v.771A.384.384,0,0,1,42.085,58.791Zm25.186-.643a.384.384,0,0,1-.385-.386v-.771a.386.386,0,1,1,.771,0v.771A.384.384,0,0,1,67.272,58.148ZM42.085,56.478a.384.384,0,0,1-.386-.386v-.771a.386.386,0,1,1,.771,0v.771A.384.384,0,0,1,42.085,56.478Zm25.186-.643a.384.384,0,0,1-.385-.386v-.771a.386.386,0,1,1,.771,0v.771A.384.384,0,0,1,67.272,55.835ZM42.085,54.165a.384.384,0,0,1-.386-.386v-.771a.386.386,0,0,1,.771,0v.771A.384.384,0,0,1,42.085,54.165Zm25.186-.643a.384.384,0,0,1-.385-.386v-.771a.386.386,0,1,1,.771,0v.771A.384.384,0,0,1,67.272,53.522ZM42.085,51.895a.384.384,0,0,1-.386-.385v-.771a.386.386,0,1,1,.771,0v.771A.384.384,0,0,1,42.085,51.895Zm25.186-.685a.384.384,0,0,1-.385-.386v-.771a.386.386,0,0,1,.771,0v.771A.384.384,0,0,1,67.272,51.209ZM42.085,49.582A.384.384,0,0,1,41.7,49.2v-.771a.386.386,0,1,1,.771,0V49.2A.384.384,0,0,1,42.085,49.582ZM67.272,48.9a.384.384,0,0,1-.385-.386V47.74a.386.386,0,1,1,.771,0v.771A.384.384,0,0,1,67.272,48.9ZM42.085,47.269a.384.384,0,0,1-.386-.386v-.771a.386.386,0,1,1,.771,0v.771A.384.384,0,0,1,42.085,47.269Zm25.186-.685a.384.384,0,0,1-.385-.386v-.771a.386.386,0,1,1,.771,0V46.2A.384.384,0,0,1,67.272,46.583ZM42.085,44.956a.384.384,0,0,1-.386-.386V43.8a.386.386,0,1,1,.771,0v.771A.384.384,0,0,1,42.085,44.956Zm25.186-.643a.384.384,0,0,1-.385-.386V43.2a.388.388,0,0,1,.771-.086v.814A.384.384,0,0,1,67.272,44.313ZM42.6,42.857a.375.375,0,0,1-.128-.728,1.087,1.087,0,0,1,.514-.086h.428a.386.386,0,1,1,0,.771h-.428c-.086,0-.129,0-.171.043Zm23.815-.086h-.771a.386.386,0,0,1,0-.771h.771a.386.386,0,1,1,0,.771Zm-2.27,0h-.771a.386.386,0,0,1,0-.771h.771a.386.386,0,1,1,0,.771Zm-2.313,0h-.771a.386.386,0,1,1,0-.771h.771a.386.386,0,1,1,0,.771Zm-2.313,0h-.771a.386.386,0,1,1,0-.771h.771a.386.386,0,0,1,0,.771Zm-2.313,0h-.771a.386.386,0,1,1,0-.771h.771a.386.386,0,1,1,0,.771Zm-2.313,0h-.771a.386.386,0,1,1,0-.771h.771a.386.386,0,1,1,0,.771Zm-2.313,0h-.771a.386.386,0,0,1,0-.771h.771a.386.386,0,1,1,0,.771Zm-2.313,0H49.5a.386.386,0,1,1,0-.771h.771a.386.386,0,1,1,0,.771Zm-2.313,0h-.771a.386.386,0,1,1,0-.771h.771a.386.386,0,1,1,0,.771Zm-2.313,0H44.87a.386.386,0,1,1,0-.771h.771a.386.386,0,1,1,0,.771Z" transform="translate(-41.7 -42)"/></g></g><g transform="translate(355 375)"><g transform="translate(0 0)"><path class="k" d="M65.772,67.786H65a.386.386,0,0,1,0-.771h.771a.386.386,0,1,1,0,.771Zm-2.313,0h-.771a.386.386,0,1,1,0-.771h.771a.386.386,0,0,1,0,.771Zm-2.313,0h-.771a.386.386,0,1,1,0-.771h.771a.386.386,0,1,1,0,.771Zm-2.27,0h-.771a.386.386,0,1,1,0-.771h.771a.386.386,0,1,1,0,.771Zm-2.313,0h-.771a.386.386,0,0,1,0-.771h.771a.386.386,0,1,1,0,.771Zm-2.313,0h-.771a.386.386,0,1,1,0-.771h.771a.386.386,0,1,1,0,.771Zm-2.313,0h-.771a.386.386,0,1,1,0-.771h.771a.386.386,0,1,1,0,.771Zm-2.313,0h-.771a.386.386,0,1,1,0-.771h.771a.386.386,0,1,1,0,.771Zm-2.313,0H46.54a.386.386,0,1,1,0-.771h.771a.386.386,0,1,1,0,.771Zm-2.313,0h-.771a.386.386,0,1,1,0-.771H45a.386.386,0,1,1,0,.771Zm-2.313-.043H42.6a1.356,1.356,0,0,1-.814-.728.394.394,0,0,1,.728-.3.453.453,0,0,0,.3.257.343.343,0,0,1,.257.471A.367.367,0,0,1,42.685,67.743Zm24.5-.386c-.086,0-.129,0-.171-.043a.359.359,0,0,1-.129-.514.386.386,0,0,0,.043-.214v-.343a.386.386,0,0,1,.771,0v.343a.983.983,0,0,1-.171.6A.529.529,0,0,1,67.186,67.357Zm-25.1-1.628a.384.384,0,0,1-.386-.385v-.771a.386.386,0,0,1,.771,0v.771A.384.384,0,0,1,42.085,65.73Zm25.186-.643a.384.384,0,0,1-.385-.385v-.771a.386.386,0,1,1,.771,0V64.7A.384.384,0,0,1,67.272,65.087ZM42.085,63.417a.384.384,0,0,1-.386-.386V62.26a.386.386,0,0,1,.771,0v.771A.384.384,0,0,1,42.085,63.417Zm25.186-.643a.384.384,0,0,1-.385-.386v-.771a.386.386,0,0,1,.771,0v.771A.384.384,0,0,1,67.272,62.774ZM42.085,61.1a.384.384,0,0,1-.386-.385v-.771a.386.386,0,0,1,.771,0v.771A.384.384,0,0,1,42.085,61.1Zm25.186-.642a.384.384,0,0,1-.385-.386V59.3a.386.386,0,1,1,.771,0v.771A.384.384,0,0,1,67.272,60.461ZM42.085,58.791a.384.384,0,0,1-.386-.386v-.771a.386.386,0,0,1,.771,0v.771A.384.384,0,0,1,42.085,58.791Zm25.186-.643a.384.384,0,0,1-.385-.386v-.771a.386.386,0,1,1,.771,0v.771A.384.384,0,0,1,67.272,58.148ZM42.085,56.478a.384.384,0,0,1-.386-.386v-.771a.386.386,0,1,1,.771,0v.771A.384.384,0,0,1,42.085,56.478Zm25.186-.643a.384.384,0,0,1-.385-.386v-.771a.386.386,0,1,1,.771,0v.771A.384.384,0,0,1,67.272,55.835ZM42.085,54.165a.384.384,0,0,1-.386-.386v-.771a.386.386,0,0,1,.771,0v.771A.384.384,0,0,1,42.085,54.165Zm25.186-.643a.384.384,0,0,1-.385-.386v-.771a.386.386,0,1,1,.771,0v.771A.384.384,0,0,1,67.272,53.522ZM42.085,51.895a.384.384,0,0,1-.386-.385v-.771a.386.386,0,1,1,.771,0v.771A.384.384,0,0,1,42.085,51.895Zm25.186-.685a.384.384,0,0,1-.385-.386v-.771a.386.386,0,0,1,.771,0v.771A.384.384,0,0,1,67.272,51.209ZM42.085,49.582A.384.384,0,0,1,41.7,49.2v-.771a.386.386,0,1,1,.771,0V49.2A.384.384,0,0,1,42.085,49.582ZM67.272,48.9a.384.384,0,0,1-.385-.386V47.74a.386.386,0,1,1,.771,0v.771A.384.384,0,0,1,67.272,48.9ZM42.085,47.269a.384.384,0,0,1-.386-.386v-.771a.386.386,0,1,1,.771,0v.771A.384.384,0,0,1,42.085,47.269Zm25.186-.685a.384.384,0,0,1-.385-.386v-.771a.386.386,0,1,1,.771,0V46.2A.384.384,0,0,1,67.272,46.583ZM42.085,44.956a.384.384,0,0,1-.386-.386V43.8a.386.386,0,1,1,.771,0v.771A.384.384,0,0,1,42.085,44.956Zm25.186-.643a.384.384,0,0,1-.385-.386V43.2a.388.388,0,0,1,.771-.086v.814A.384.384,0,0,1,67.272,44.313ZM42.6,42.857a.375.375,0,0,1-.128-.728,1.087,1.087,0,0,1,.514-.086h.428a.386.386,0,1,1,0,.771h-.428c-.086,0-.129,0-.171.043Zm23.815-.086h-.771a.386.386,0,0,1,0-.771h.771a.386.386,0,1,1,0,.771Zm-2.27,0h-.771a.386.386,0,0,1,0-.771h.771a.386.386,0,1,1,0,.771Zm-2.313,0h-.771a.386.386,0,1,1,0-.771h.771a.386.386,0,1,1,0,.771Zm-2.313,0h-.771a.386.386,0,1,1,0-.771h.771a.386.386,0,0,1,0,.771Zm-2.313,0h-.771a.386.386,0,1,1,0-.771h.771a.386.386,0,1,1,0,.771Zm-2.313,0h-.771a.386.386,0,1,1,0-.771h.771a.386.386,0,1,1,0,.771Zm-2.313,0h-.771a.386.386,0,0,1,0-.771h.771a.386.386,0,1,1,0,.771Zm-2.313,0H49.5a.386.386,0,1,1,0-.771h.771a.386.386,0,1,1,0,.771Zm-2.313,0h-.771a.386.386,0,1,1,0-.771h.771a.386.386,0,1,1,0,.771Zm-2.313,0H44.87a.386.386,0,1,1,0-.771h.771a.386.386,0,1,1,0,.771Z" transform="translate(-41.7 -42)"/></g></g><g transform="translate(389 375)"><g transform="translate(0 0)"><path class="k" d="M65.772,67.786H65a.386.386,0,0,1,0-.771h.771a.386.386,0,1,1,0,.771Zm-2.313,0h-.771a.386.386,0,1,1,0-.771h.771a.386.386,0,0,1,0,.771Zm-2.313,0h-.771a.386.386,0,1,1,0-.771h.771a.386.386,0,1,1,0,.771Zm-2.27,0h-.771a.386.386,0,1,1,0-.771h.771a.386.386,0,1,1,0,.771Zm-2.313,0h-.771a.386.386,0,0,1,0-.771h.771a.386.386,0,1,1,0,.771Zm-2.313,0h-.771a.386.386,0,1,1,0-.771h.771a.386.386,0,1,1,0,.771Zm-2.313,0h-.771a.386.386,0,1,1,0-.771h.771a.386.386,0,1,1,0,.771Zm-2.313,0h-.771a.386.386,0,1,1,0-.771h.771a.386.386,0,1,1,0,.771Zm-2.313,0H46.54a.386.386,0,1,1,0-.771h.771a.386.386,0,1,1,0,.771Zm-2.313,0h-.771a.386.386,0,1,1,0-.771H45a.386.386,0,1,1,0,.771Zm-2.313-.043H42.6a1.356,1.356,0,0,1-.814-.728.394.394,0,0,1,.728-.3.453.453,0,0,0,.3.257.343.343,0,0,1,.257.471A.367.367,0,0,1,42.685,67.743Zm24.5-.386c-.086,0-.129,0-.171-.043a.359.359,0,0,1-.129-.514.386.386,0,0,0,.043-.214v-.343a.386.386,0,0,1,.771,0v.343a.983.983,0,0,1-.171.6A.529.529,0,0,1,67.186,67.357Zm-25.1-1.628a.384.384,0,0,1-.386-.385v-.771a.386.386,0,0,1,.771,0v.771A.384.384,0,0,1,42.085,65.73Zm25.186-.643a.384.384,0,0,1-.385-.385v-.771a.386.386,0,1,1,.771,0V64.7A.384.384,0,0,1,67.272,65.087ZM42.085,63.417a.384.384,0,0,1-.386-.386V62.26a.386.386,0,0,1,.771,0v.771A.384.384,0,0,1,42.085,63.417Zm25.186-.643a.384.384,0,0,1-.385-.386v-.771a.386.386,0,0,1,.771,0v.771A.384.384,0,0,1,67.272,62.774ZM42.085,61.1a.384.384,0,0,1-.386-.385v-.771a.386.386,0,0,1,.771,0v.771A.384.384,0,0,1,42.085,61.1Zm25.186-.642a.384.384,0,0,1-.385-.386V59.3a.386.386,0,1,1,.771,0v.771A.384.384,0,0,1,67.272,60.461ZM42.085,58.791a.384.384,0,0,1-.386-.386v-.771a.386.386,0,0,1,.771,0v.771A.384.384,0,0,1,42.085,58.791Zm25.186-.643a.384.384,0,0,1-.385-.386v-.771a.386.386,0,1,1,.771,0v.771A.384.384,0,0,1,67.272,58.148ZM42.085,56.478a.384.384,0,0,1-.386-.386v-.771a.386.386,0,1,1,.771,0v.771A.384.384,0,0,1,42.085,56.478Zm25.186-.643a.384.384,0,0,1-.385-.386v-.771a.386.386,0,1,1,.771,0v.771A.384.384,0,0,1,67.272,55.835ZM42.085,54.165a.384.384,0,0,1-.386-.386v-.771a.386.386,0,0,1,.771,0v.771A.384.384,0,0,1,42.085,54.165Zm25.186-.643a.384.384,0,0,1-.385-.386v-.771a.386.386,0,1,1,.771,0v.771A.384.384,0,0,1,67.272,53.522ZM42.085,51.895a.384.384,0,0,1-.386-.385v-.771a.386.386,0,1,1,.771,0v.771A.384.384,0,0,1,42.085,51.895Zm25.186-.685a.384.384,0,0,1-.385-.386v-.771a.386.386,0,0,1,.771,0v.771A.384.384,0,0,1,67.272,51.209ZM42.085,49.582A.384.384,0,0,1,41.7,49.2v-.771a.386.386,0,1,1,.771,0V49.2A.384.384,0,0,1,42.085,49.582ZM67.272,48.9a.384.384,0,0,1-.385-.386V47.74a.386.386,0,1,1,.771,0v.771A.384.384,0,0,1,67.272,48.9ZM42.085,47.269a.384.384,0,0,1-.386-.386v-.771a.386.386,0,1,1,.771,0v.771A.384.384,0,0,1,42.085,47.269Zm25.186-.685a.384.384,0,0,1-.385-.386v-.771a.386.386,0,1,1,.771,0V46.2A.384.384,0,0,1,67.272,46.583ZM42.085,44.956a.384.384,0,0,1-.386-.386V43.8a.386.386,0,1,1,.771,0v.771A.384.384,0,0,1,42.085,44.956Zm25.186-.643a.384.384,0,0,1-.385-.386V43.2a.388.388,0,0,1,.771-.086v.814A.384.384,0,0,1,67.272,44.313ZM42.6,42.857a.375.375,0,0,1-.128-.728,1.087,1.087,0,0,1,.514-.086h.428a.386.386,0,1,1,0,.771h-.428c-.086,0-.129,0-.171.043Zm23.815-.086h-.771a.386.386,0,0,1,0-.771h.771a.386.386,0,1,1,0,.771Zm-2.27,0h-.771a.386.386,0,0,1,0-.771h.771a.386.386,0,1,1,0,.771Zm-2.313,0h-.771a.386.386,0,1,1,0-.771h.771a.386.386,0,1,1,0,.771Zm-2.313,0h-.771a.386.386,0,1,1,0-.771h.771a.386.386,0,0,1,0,.771Zm-2.313,0h-.771a.386.386,0,1,1,0-.771h.771a.386.386,0,1,1,0,.771Zm-2.313,0h-.771a.386.386,0,1,1,0-.771h.771a.386.386,0,1,1,0,.771Zm-2.313,0h-.771a.386.386,0,0,1,0-.771h.771a.386.386,0,1,1,0,.771Zm-2.313,0H49.5a.386.386,0,1,1,0-.771h.771a.386.386,0,1,1,0,.771Zm-2.313,0h-.771a.386.386,0,1,1,0-.771h.771a.386.386,0,1,1,0,.771Zm-2.313,0H44.87a.386.386,0,1,1,0-.771h.771a.386.386,0,1,1,0,.771Z" transform="translate(-41.7 -42)"/></g></g><g transform="translate(423 375)"><g transform="translate(0 0)"><path class="k" d="M65.772,67.786H65a.386.386,0,0,1,0-.771h.771a.386.386,0,1,1,0,.771Zm-2.313,0h-.771a.386.386,0,1,1,0-.771h.771a.386.386,0,0,1,0,.771Zm-2.313,0h-.771a.386.386,0,1,1,0-.771h.771a.386.386,0,1,1,0,.771Zm-2.27,0h-.771a.386.386,0,1,1,0-.771h.771a.386.386,0,1,1,0,.771Zm-2.313,0h-.771a.386.386,0,0,1,0-.771h.771a.386.386,0,1,1,0,.771Zm-2.313,0h-.771a.386.386,0,1,1,0-.771h.771a.386.386,0,1,1,0,.771Zm-2.313,0h-.771a.386.386,0,1,1,0-.771h.771a.386.386,0,1,1,0,.771Zm-2.313,0h-.771a.386.386,0,1,1,0-.771h.771a.386.386,0,1,1,0,.771Zm-2.313,0H46.54a.386.386,0,1,1,0-.771h.771a.386.386,0,1,1,0,.771Zm-2.313,0h-.771a.386.386,0,1,1,0-.771H45a.386.386,0,1,1,0,.771Zm-2.313-.043H42.6a1.356,1.356,0,0,1-.814-.728.394.394,0,0,1,.728-.3.453.453,0,0,0,.3.257.343.343,0,0,1,.257.471A.367.367,0,0,1,42.685,67.743Zm24.5-.386c-.086,0-.129,0-.171-.043a.359.359,0,0,1-.129-.514.386.386,0,0,0,.043-.214v-.343a.386.386,0,0,1,.771,0v.343a.983.983,0,0,1-.171.6A.529.529,0,0,1,67.186,67.357Zm-25.1-1.628a.384.384,0,0,1-.386-.385v-.771a.386.386,0,0,1,.771,0v.771A.384.384,0,0,1,42.085,65.73Zm25.186-.643a.384.384,0,0,1-.385-.385v-.771a.386.386,0,1,1,.771,0V64.7A.384.384,0,0,1,67.272,65.087ZM42.085,63.417a.384.384,0,0,1-.386-.386V62.26a.386.386,0,0,1,.771,0v.771A.384.384,0,0,1,42.085,63.417Zm25.186-.643a.384.384,0,0,1-.385-.386v-.771a.386.386,0,0,1,.771,0v.771A.384.384,0,0,1,67.272,62.774ZM42.085,61.1a.384.384,0,0,1-.386-.385v-.771a.386.386,0,0,1,.771,0v.771A.384.384,0,0,1,42.085,61.1Zm25.186-.642a.384.384,0,0,1-.385-.386V59.3a.386.386,0,1,1,.771,0v.771A.384.384,0,0,1,67.272,60.461ZM42.085,58.791a.384.384,0,0,1-.386-.386v-.771a.386.386,0,0,1,.771,0v.771A.384.384,0,0,1,42.085,58.791Zm25.186-.643a.384.384,0,0,1-.385-.386v-.771a.386.386,0,1,1,.771,0v.771A.384.384,0,0,1,67.272,58.148ZM42.085,56.478a.384.384,0,0,1-.386-.386v-.771a.386.386,0,1,1,.771,0v.771A.384.384,0,0,1,42.085,56.478Zm25.186-.643a.384.384,0,0,1-.385-.386v-.771a.386.386,0,1,1,.771,0v.771A.384.384,0,0,1,67.272,55.835ZM42.085,54.165a.384.384,0,0,1-.386-.386v-.771a.386.386,0,0,1,.771,0v.771A.384.384,0,0,1,42.085,54.165Zm25.186-.643a.384.384,0,0,1-.385-.386v-.771a.386.386,0,1,1,.771,0v.771A.384.384,0,0,1,67.272,53.522ZM42.085,51.895a.384.384,0,0,1-.386-.385v-.771a.386.386,0,1,1,.771,0v.771A.384.384,0,0,1,42.085,51.895Zm25.186-.685a.384.384,0,0,1-.385-.386v-.771a.386.386,0,0,1,.771,0v.771A.384.384,0,0,1,67.272,51.209ZM42.085,49.582A.384.384,0,0,1,41.7,49.2v-.771a.386.386,0,1,1,.771,0V49.2A.384.384,0,0,1,42.085,49.582ZM67.272,48.9a.384.384,0,0,1-.385-.386V47.74a.386.386,0,1,1,.771,0v.771A.384.384,0,0,1,67.272,48.9ZM42.085,47.269a.384.384,0,0,1-.386-.386v-.771a.386.386,0,1,1,.771,0v.771A.384.384,0,0,1,42.085,47.269Zm25.186-.685a.384.384,0,0,1-.385-.386v-.771a.386.386,0,1,1,.771,0V46.2A.384.384,0,0,1,67.272,46.583ZM42.085,44.956a.384.384,0,0,1-.386-.386V43.8a.386.386,0,1,1,.771,0v.771A.384.384,0,0,1,42.085,44.956Zm25.186-.643a.384.384,0,0,1-.385-.386V43.2a.388.388,0,0,1,.771-.086v.814A.384.384,0,0,1,67.272,44.313ZM42.6,42.857a.375.375,0,0,1-.128-.728,1.087,1.087,0,0,1,.514-.086h.428a.386.386,0,1,1,0,.771h-.428c-.086,0-.129,0-.171.043Zm23.815-.086h-.771a.386.386,0,0,1,0-.771h.771a.386.386,0,1,1,0,.771Zm-2.27,0h-.771a.386.386,0,0,1,0-.771h.771a.386.386,0,1,1,0,.771Zm-2.313,0h-.771a.386.386,0,1,1,0-.771h.771a.386.386,0,1,1,0,.771Zm-2.313,0h-.771a.386.386,0,1,1,0-.771h.771a.386.386,0,0,1,0,.771Zm-2.313,0h-.771a.386.386,0,1,1,0-.771h.771a.386.386,0,1,1,0,.771Zm-2.313,0h-.771a.386.386,0,1,1,0-.771h.771a.386.386,0,1,1,0,.771Zm-2.313,0h-.771a.386.386,0,0,1,0-.771h.771a.386.386,0,1,1,0,.771Zm-2.313,0H49.5a.386.386,0,1,1,0-.771h.771a.386.386,0,1,1,0,.771Zm-2.313,0h-.771a.386.386,0,1,1,0-.771h.771a.386.386,0,1,1,0,.771Zm-2.313,0H44.87a.386.386,0,1,1,0-.771h.771a.386.386,0,1,1,0,.771Z" transform="translate(-41.7 -42)"/></g></g><text class="l" transform="translate(385 422)"><tspan x="-30.234" y="0">Containers</tspan></text><g transform="translate(24.701 260.503)"><g transform="translate(68.196 88.497)"><path d="M81.636,103.228a.338.338,0,0,1-.043,0,40.844,40.844,0,0,1-6.368-1.343.306.306,0,1,1,.185-.584,40.225,40.225,0,0,0,6.27,1.32.307.307,0,0,1-.044.61Z" transform="translate(-70.833 -93.444)"/><path d="M101.7,104.052c-2.566,0-5.088-.088-7.494-.262a.46.46,0,0,1,.067-.917c2.383.172,4.882.259,7.426.259,7.835,0,15.023-.826,19.229-2.21a.459.459,0,1,1,.287.873C116.923,103.209,109.627,104.052,101.7,104.052Z" transform="translate(-78.095 -93.296)"/><path d="M91.8,113.462c-11.73,0-23.605-1.874-23.605-5.455V93.952C68.2,90.371,80.071,88.5,91.8,88.5s23.606,1.874,23.606,5.455v14.054C115.407,111.588,103.532,113.462,91.8,113.462Zm0-23.739c-13.865,0-22.379,2.463-22.379,4.228v14.054c0,1.766,8.514,4.229,22.379,4.229s22.38-2.463,22.38-4.229V93.952C114.181,92.186,105.667,89.723,91.8,89.723Z" transform="translate(-68.196 -88.497)"/></g></g><path d="M99.481,125.477c2.9.245,5.942.37,9.037.37,8.541,0,16.537-.965,21.393-2.581a.75.75,0,1,1,.474,1.424c-5,1.664-13.174,2.657-21.867,2.657-3.137,0-6.22-.126-9.165-.376a.75.75,0,0,1,.128-1.494Zm-6.079-.491a38.265,38.265,0,0,1-7.343-1.838.5.5,0,1,0-.363.931,38.682,38.682,0,0,0,7.544,1.893.47.47,0,0,0,.082.007.5.5,0,0,0,.08-.993Zm39.668-6.28c1.429.856,2.276,1.864,2.276,3.045v15.243c0,5.207-16.348,7.1-27.334,7.1s-27.334-1.89-27.334-7.1V121.751c0-1.181.848-2.188,2.275-3.045-1.428-.856-2.275-1.864-2.275-3.045V100.418c0-1.195.87-2.215,2.332-3.078-1.476-.866-2.357-1.89-2.357-3.092V79c0-5.206,16.346-7.1,27.333-7.1s27.333,1.89,27.333,7.1V94.248c0,1.195-.869,2.215-2.33,3.078,1.476.866,2.357,1.89,2.357,3.092v15.243C135.347,116.842,134.5,117.85,133.07,118.706ZM85.317,96.271a25.82,25.82,0,0,0,3.295,1.065,79.309,79.309,0,0,0,19.374,2.009,79.235,79.235,0,0,0,19.4-2.015,26.139,26.139,0,0,0,3.3-1.069c1.744-.723,2.637-1.445,2.637-2.013V79c0-1.778-8.7-5.1-25.333-5.1S82.653,77.226,82.653,79V94.248C82.653,94.817,83.557,95.545,85.317,96.271Zm45.483,23.5c-5.643,2.131-15.418,2.983-22.787,2.983s-17.146-.853-22.787-2.983c-1.688.711-2.547,1.42-2.547,1.978v15.243c0,1.778,8.7,5.1,25.334,5.1s25.334-3.318,25.334-5.1V121.751C133.347,121.193,132.486,120.484,130.8,119.773Zm2.547-19.355c0-.569-.9-1.3-2.664-2.022-5.654,2.106-15.365,2.949-22.7,2.949s-17.011-.841-22.669-2.939c-1.744.723-2.639,1.445-2.639,2.013v15.243c0,.558.859,1.267,2.547,1.978a25.29,25.29,0,0,0,3.252,1.067,78.743,78.743,0,0,0,19.535,2.051,78.718,78.718,0,0,0,19.533-2.051,25.594,25.594,0,0,0,3.254-1.067c1.687-.711,2.547-1.42,2.547-1.978Zm-3.436,1.515c-4.855,1.615-12.85,2.58-21.393,2.58-3.108,0-6.148-.125-9.037-.37a.75.75,0,0,0-.128,1.495c2.933.25,6.017.376,9.165.376,8.7,0,16.869-.993,21.867-2.656a.751.751,0,0,0-.474-1.425ZM93.4,103.652a38.124,38.124,0,0,1-7.343-1.838.5.5,0,1,0-.363.931,38.545,38.545,0,0,0,7.544,1.893.47.47,0,0,0,.082.007.5.5,0,0,0,.08-.993Zm5.927-19.427c2.943.25,6.027.376,9.164.376,8.692,0,16.867-.993,21.867-2.657a.75.75,0,1,0-.474-1.424c-4.855,1.616-12.852,2.581-21.393,2.581-3.1,0-6.136-.125-9.038-.37a.759.759,0,0,0-.81.684A.75.75,0,0,0,99.329,84.225Zm-6.03-.992a.5.5,0,0,0,.079-.993A38.239,38.239,0,0,1,86.034,80.4a.5.5,0,0,0-.363.931,38.675,38.675,0,0,0,7.545,1.893A.45.45,0,0,0,93.3,83.233Z" transform="translate(567.347 76.091)"/><g transform="translate(585.8 339.1)"><path d="M115.2,115.1Z"/><path d="M65.3,115.1Z"/><path d="M66.2,107.6a2.663,2.663,0,0,0-1.2-.3,3.553,3.553,0,0,0-1,.2,2.942,2.942,0,0,0-1.6,1.5,2,2,0,0,0-.2,1.3.472.472,0,0,0,.5.5.536.536,0,0,0,.5-.5,2.769,2.769,0,0,1,.1-.9,1.757,1.757,0,0,1,1-.9,1.7,1.7,0,0,1,1.4,0,1.757,1.757,0,0,1,.9,1,1.708,1.708,0,0,1,0,1.4,1.794,1.794,0,0,1-.5.7.5.5,0,0,0,.6.8,1.891,1.891,0,0,0,.8-1,3.043,3.043,0,0,0,.1-2.1A2.246,2.246,0,0,0,66.2,107.6Z"/><path d="M116.1,107.6a2.663,2.663,0,0,0-1.2-.3,3.553,3.553,0,0,0-1,.2,2.942,2.942,0,0,0-1.6,1.5,2,2,0,0,0-.2,1.3.5.5,0,1,0,1,0,2.769,2.769,0,0,1,.1-.9,1.757,1.757,0,0,1,1-.9,1.708,1.708,0,0,1,1.4,0,1.757,1.757,0,0,1,.9,1,1.708,1.708,0,0,1,0,1.4,1.794,1.794,0,0,1-.5.7.5.5,0,1,0,.6.8,1.891,1.891,0,0,0,.8-1,3.043,3.043,0,0,0,.1-2.1A2.246,2.246,0,0,0,116.1,107.6Z"/><path d="M124,65.5H102l-.6-3a.858.858,0,0,0-.7-.6h-12a.669.669,0,0,0-.7.6l-.6,3h0l-.6-3a.858.858,0,0,0-.7-.6H74a.669.669,0,0,0-.7.6l-.6,3h0l-.6-3a.858.858,0,0,0-.7-.6h-12a.669.669,0,0,0-.7.6l-.6,3H56a.789.789,0,0,0-.8.8v48a.789.789,0,0,0,.8.8h6.9c0,.1.1.2.1.3a2.7,2.7,0,0,0,1.7,1.6,1.962,1.962,0,0,0,1.5-.1,2.743,2.743,0,0,0,1.2-1.8h45.4c0,.1.1.2.1.3a2.7,2.7,0,0,0,1.7,1.6,1.962,1.962,0,0,0,1.5-.1,2.743,2.743,0,0,0,1.2-1.8H124a.789.789,0,0,0,.8-.8v-48A.789.789,0,0,0,124,65.5ZM89.3,63.4H100c.1.7.3,1.4.4,2.1H88.9C89,64.8,89.2,64.1,89.3,63.4Zm-14.6,0H85.4c.1.7.3,1.4.4,2.1H74.2C74.4,64.8,74.5,64.1,74.7,63.4Zm-9.4,51.7Zm49.9,0Zm8.1-1.6h-8.5a9.761,9.761,0,0,1,1.1-2.9,1.012,1.012,0,0,0-.4-1.4.9.9,0,0,0-.5-.1,1.193,1.193,0,0,0-.9.5,9.38,9.38,0,0,0-1.3,3.9h-48a9.761,9.761,0,0,1,1.1-2.9,1.012,1.012,0,0,0-.4-1.4.9.9,0,0,0-.5-.1,1.193,1.193,0,0,0-.9.5,9.38,9.38,0,0,0-1.3,3.9H56.7V67h2a.858.858,0,0,0,.7-.6c.1-.3.1-.6.2-.9.1-.7.3-1.4.4-2.1H70.7c.1.7.3,1.4.4,2.1.1.3.1.6.2.9a.877.877,0,0,0,.7.6h51.2v46.5Z"/><path d="M89.8,104.5h-1a.5.5,0,0,1,0-1h1a.5.5,0,0,1,0,1Zm-3,0h-1a.5.5,0,0,1,0-1h1a.472.472,0,0,1,.5.5A.536.536,0,0,1,86.8,104.5Zm-3,0h-1a.5.5,0,0,1,0-1h1a.472.472,0,0,1,.5.5A.536.536,0,0,1,83.8,104.5Zm-3.1,0h-1a.5.5,0,0,1,0-1h1a.5.5,0,0,1,0,1Zm-3,0h-1a.5.5,0,0,1,0-1h1a.5.5,0,0,1,0,1Zm-3,0h-1a.5.5,0,0,1,0-1h1a.5.5,0,0,1,0,1Zm-3,0h-1a.5.5,0,0,1,0-1h1a.5.5,0,0,1,0,1Zm-3,0h-1a.5.5,0,0,1,0-1h1a.472.472,0,0,1,.5.5A.536.536,0,0,1,68.7,104.5Zm-3,0h-1a.5.5,0,0,1,0-1h1a.472.472,0,0,1,.5.5A.536.536,0,0,1,65.7,104.5Zm-3.1,0h-1a.5.5,0,0,1,0-1h1a.5.5,0,1,1,0,1Zm29.2,0a.5.5,0,0,1,0-1c.2,0,.3-.1.5-.3a.5.5,0,1,1,.8.6,1.709,1.709,0,0,1-1.3.7Zm-31.2-1.4a.472.472,0,0,1-.5-.5v-1a.5.5,0,0,1,1,0v1A.536.536,0,0,1,60.6,103.1Zm32.2-1a.472.472,0,0,1-.5-.5v-1a.5.5,0,0,1,1,0v1A.536.536,0,0,1,92.8,102.1Zm-32.2-2a.472.472,0,0,1-.5-.5v-1a.5.5,0,0,1,1,0v1A.536.536,0,0,1,60.6,100.1ZM92.8,99a.472.472,0,0,1-.5-.5v-1a.5.5,0,0,1,1,0v1A.472.472,0,0,1,92.8,99ZM60.6,97.1a.472.472,0,0,1-.5-.5v-1a.5.5,0,0,1,1,0v1A.536.536,0,0,1,60.6,97.1ZM92.8,96a.472.472,0,0,1-.5-.5v-1a.5.5,0,0,1,1,0v1A.472.472,0,0,1,92.8,96ZM60.6,94.1a.472.472,0,0,1-.5-.5v-1a.5.5,0,0,1,1,0v1A.536.536,0,0,1,60.6,94.1ZM92.8,93a.472.472,0,0,1-.5-.5v-1a.5.5,0,0,1,1,0v1A.472.472,0,0,1,92.8,93ZM60.6,91.1a.472.472,0,0,1-.5-.5v-1a.5.5,0,0,1,1,0v1A.642.642,0,0,1,60.6,91.1ZM92.8,90a.472.472,0,0,1-.5-.5v-1a.5.5,0,0,1,1,0v1A.472.472,0,0,1,92.8,90ZM60.6,88a.472.472,0,0,1-.5-.5v-1a.5.5,0,0,1,1,0v1A.536.536,0,0,1,60.6,88Zm32.2-1a.472.472,0,0,1-.5-.5v-1a.5.5,0,0,1,1,0v1A.472.472,0,0,1,92.8,87ZM60.6,85a.472.472,0,0,1-.5-.5v-1a.5.5,0,0,1,1,0v1A.536.536,0,0,1,60.6,85Zm32.2-1a.472.472,0,0,1-.5-.5v-1a.5.5,0,0,1,1,0v1A.536.536,0,0,1,92.8,84ZM60.6,82a.472.472,0,0,1-.5-.5v-1a.5.5,0,0,1,1,0v1A.536.536,0,0,1,60.6,82Zm32.2-1.1a.472.472,0,0,1-.5-.5v-1a.5.5,0,0,1,1,0v1A.472.472,0,0,1,92.8,80.9ZM60.6,79a.472.472,0,0,1-.5-.5v-1a.5.5,0,0,1,1,0v1A.536.536,0,0,1,60.6,79Zm32.2-1.1a.472.472,0,0,1-.5-.5v-1a.5.5,0,0,1,1,0v1A.472.472,0,0,1,92.8,77.9ZM60.6,76a.472.472,0,0,1-.5-.5v-1a.5.5,0,0,1,1,0v1A.536.536,0,0,1,60.6,76Zm32.2-1.1a.472.472,0,0,1-.5-.5v-1a.5.5,0,0,1,1,0v1A.472.472,0,0,1,92.8,74.9ZM60.7,73a.367.367,0,0,1-.3-.1.494.494,0,0,1-.1-.7,1.525,1.525,0,0,1,1.2-.7.5.5,0,0,1,0,1,.55.55,0,0,0-.5.3C61.1,72.9,60.9,73,60.7,73Zm31-.5h-1a.5.5,0,0,1,0-1h1a.5.5,0,0,1,0,1Zm-3,0h-1a.5.5,0,0,1,0-1h1a.5.5,0,0,1,0,1Zm-3,0h-1a.5.5,0,0,1,0-1h1a.5.5,0,0,1,0,1Zm-3,0h-1a.5.5,0,0,1,0-1h1a.5.5,0,0,1,0,1Zm-3,0h-1a.5.5,0,0,1,0-1h1a.472.472,0,0,1,.5.5A.536.536,0,0,1,79.7,72.5Zm-3.1,0h-1a.5.5,0,0,1,0-1h1a.5.5,0,0,1,0,1Zm-3,0h-1a.5.5,0,0,1,0-1h1a.5.5,0,0,1,0,1Zm-3,0h-1a.5.5,0,0,1,0-1h1a.5.5,0,0,1,0,1Zm-3,0h-1a.5.5,0,0,1,0-1h1a.5.5,0,0,1,0,1Zm-3,0h-1a.5.5,0,0,1,0-1h1a.5.5,0,0,1,0,1Z"/><path d="M96.8,83.5a.789.789,0,0,0,.8.8h21a.8.8,0,1,0,0-1.6h-21C97.1,82.8,96.8,83.1,96.8,83.5Z"/><path d="M118.6,87.3h-21a.8.8,0,0,0,0,1.6h21a.8.8,0,0,0,0-1.6Z"/><path d="M110.5,91.8h-13a.8.8,0,0,0,0,1.6h13a.8.8,0,1,0,0-1.6Z"/><line x2="10.7" transform="translate(89.3 63.4)"/><line x2="10.7" transform="translate(74.7 63.4)"/></g><g transform="translate(-15 -54)"><line class="m" y2="23" transform="translate(35.5 616.5)"/><line class="m" y2="23" transform="translate(765.5 616.5)"/><line class="m" x2="730" transform="translate(35.5 638.5)"/></g><g transform="translate(8 -33)"><text class="n" transform="translate(175 717)"><tspan x="-23.064" y="0">Physical</tspan></text><text class="n" transform="translate(280 717)"><tspan x="-18.876" y="0">Virtual</tspan></text><text class="n" transform="translate(383 717)"><tspan x="-20.286" y="0">Private</tspan></text><text class="n" transform="translate(483 717)"><tspan x="-17.334" y="0">Public</tspan></text><text class="n" transform="translate(584 717)"><tspan x="-18.894" y="0">Hybrid</tspan></text><g transform="translate(495.11 574.058)"><g transform="translate(61.89 87.942)"><path class="o" d="M106.808,97.2a13.458,13.458,0,0,0-25.557-.051,9.021,9.021,0,0,0-2.985-.5,8.88,8.88,0,0,0-8.684,6.732,8.1,8.1,0,0,0-7.678,6.246.54.54,0,0,0,.108.46.559.559,0,0,0,.433.2H81.568a12.207,12.207,0,0,0-.132,1.78,12.649,12.649,0,0,0,25.293,0,12.2,12.2,0,0,0-.132-1.78h8.353a.552.552,0,0,0,.547-.452,10.707,10.707,0,0,0,.174-1.872A11.064,11.064,0,0,0,106.808,97.2ZM94.083,123.319a11.25,11.25,0,1,1,11.48-11.248A11.379,11.379,0,0,1,94.083,123.319ZM114.474,109.2h-8.09a12.706,12.706,0,0,0-24.6,0H63.174a7.041,7.041,0,0,1,6.757-4.739h0l.085,0a.53.53,0,0,0,.559-.446,7.763,7.763,0,0,1,7.686-6.286A7.889,7.889,0,0,1,81.2,98.3a6.188,6.188,0,0,1,2.579,2.233.421.421,0,0,0,.57.141.4.4,0,0,0,.145-.558,6.687,6.687,0,0,0-2.3-2.215,12.328,12.328,0,0,1,23.479-.6,6.38,6.38,0,0,0-2.56.523.4.4,0,0,0-.225.533.419.419,0,0,0,.542.221,6.632,6.632,0,0,1,3.149-.308,9.964,9.964,0,0,1,7.987,9.69A9.03,9.03,0,0,1,114.474,109.2Z" transform="translate(-61.89 -87.942)"/></g><g transform="translate(86.5 104.701)"><path class="o" d="M118.852,123.946l-1.445-1.6a6.655,6.655,0,0,0-2.392-2.775,1.8,1.8,0,0,0,.066-.479,1.818,1.818,0,0,0-3.531-.609c-.057,0-.114-.005-.172-.005a6.632,6.632,0,0,0-4.141,1.455l-.588-.477a.258.258,0,0,0-.163-.057l-.082.013a.257.257,0,0,0-.165.178l-.557,2.125a6.611,6.611,0,0,0-.939,3.4c0,.131,0,.261.012.39a1.817,1.817,0,0,0,.81,3.444,1.768,1.768,0,0,0,.373-.04,6.641,6.641,0,0,0,3.653,2.6l-.06.691a.265.265,0,0,0,.1.226.26.26,0,0,0,.159.054.255.255,0,0,0,.085-.014l2.095-.739a6.617,6.617,0,0,0,3.225-1.184,1.816,1.816,0,0,0,2.284-2.81,6.577,6.577,0,0,0,.537-2.613c0-.165-.007-.334-.02-.511l.748-.239a.258.258,0,0,0,.169-.178A.264.264,0,0,0,118.852,123.946Zm-2.632,6.207a1.1,1.1,0,0,1-.606-.181,1.072,1.072,0,0,1-.274-.254,1.1,1.1,0,0,1-.232-.678,1.114,1.114,0,0,1,1.112-1.114,1.117,1.117,0,0,1,1.115,1.114A1.115,1.115,0,0,1,116.22,130.153Zm-10.654-4.138a1.113,1.113,0,0,1,.538,2.088,1.093,1.093,0,0,1-.364.123,1.024,1.024,0,0,1-.174.015,1.113,1.113,0,0,1-.182-2.211A1.131,1.131,0,0,1,105.566,126.015Zm1.819,1.114a1.821,1.821,0,0,0-1.819-1.819c-.038,0-.075,0-.113,0,0-.067-.006-.134-.006-.2a5.892,5.892,0,0,1,.963-3.235l1.65-.806a.257.257,0,0,0,.143-.2.252.252,0,0,0-.094-.229l-.311-.253a5.944,5.944,0,0,1,3.58-1.206l.068,0a1.818,1.818,0,0,0,3.252,1.021,5.933,5.933,0,0,1,2.147,2.612l-.23,1.839a.248.248,0,0,0,.087.229.253.253,0,0,0,.166.062l.431-.125c.006.1.009.192.009.289a5.877,5.877,0,0,1-.438,2.23,1.787,1.787,0,0,0-.651-.122,1.821,1.821,0,0,0-1.818,1.819,1.794,1.794,0,0,0,.293.986,5.9,5.9,0,0,1-3.022,1.01l-1.6-.916a.257.257,0,0,0-.127-.035.249.249,0,0,0-.118.03.255.255,0,0,0-.137.205l-.04.466a5.959,5.959,0,0,1-3.05-2.168A1.818,1.818,0,0,0,107.385,127.13Zm6.952-7.753a1.083,1.083,0,0,1-.153.34,1.113,1.113,0,0,1-2.034-.639,1.08,1.08,0,0,1,.067-.365,1.113,1.113,0,0,1,2.159.379A1.055,1.055,0,0,1,114.337,119.377Z" transform="translate(-103.747 -117.274)"/></g></g><g transform="translate(177.115 574.26)"><path d="M78.279,101.013a.836.836,0,0,0-.044.221v14.378a.855.855,0,0,0,.855.855H128.3a.856.856,0,0,0,.856-.855V101.234a.8.8,0,0,0-.046-.222.843.843,0,0,0-.435-.986l-7.866-3.85a.865.865,0,0,0-.375-.086h-32.3a.85.85,0,0,0-.335.067l-9.053,3.85A.846.846,0,0,0,78.279,101.013ZM88.318,97.8h31.924l5.27,2.58H82.253Zm-8.373,4.5h47.5v12.455h-47.5V102.3Z" transform="translate(-0.629 -0.629)"/><circle cx="1.176" cy="1.176" r="1.176" transform="translate(82.466 106.679)"/><circle cx="1.176" cy="1.176" r="1.176" transform="translate(86.64 106.679)"/><path d="M131.993,106h-2.565a.429.429,0,0,0-.429.428v6.844a.429.429,0,0,0,.429.428h2.565a.429.429,0,0,0,.429-.428v-6.844A.429.429,0,0,0,131.993,106Zm-.427,6.844h-1.711v-5.988h1.711Z" transform="translate(-7.965 -2.061)"/><path d="M125.994,106h-2.566a.428.428,0,0,0-.428.428v6.844a.428.428,0,0,0,.428.428h2.566a.428.428,0,0,0,.428-.428v-6.844A.428.428,0,0,0,125.994,106Zm-.428,6.844h-1.711v-5.988h1.711Z" transform="translate(-7.098 -2.061)"/><path d="M108.964,122.76h-1.715a.642.642,0,0,0,0,1.283h1.715a.642.642,0,1,0,0-1.283Z" transform="translate(-4.729 -4.483)"/><path d="M113.978,122.76h-1.715a.642.642,0,0,0,0,1.283h1.715a.642.642,0,1,0,0-1.283Z" transform="translate(-5.454 -4.483)"/><path d="M75.459,98.53a.641.641,0,0,0-.881.216,4.656,4.656,0,0,0-.641,1.87.642.642,0,0,0,.565.711.722.722,0,0,0,.074,0,.642.642,0,0,0,.636-.569,3.362,3.362,0,0,1,.463-1.351A.641.641,0,0,0,75.459,98.53Z" transform="translate(-0.007 -0.968)"/><path d="M93.923,122.76H92.208a.642.642,0,1,0,0,1.283h1.715a.642.642,0,1,0,0-1.283Z" transform="translate(-2.555 -4.483)"/><path d="M83.9,122.76H82.181a.642.642,0,1,0,0,1.283H83.9a.642.642,0,1,0,0-1.283Z" transform="translate(-1.106 -4.483)"/><path d="M78.846,122.7a3.251,3.251,0,0,1-1.389-.308.642.642,0,0,0-.544,1.163,4.533,4.533,0,0,0,1.933.429h.038a.626.626,0,0,0,.623-.642A.658.658,0,0,0,78.846,122.7Z" transform="translate(-0.384 -4.421)"/><path d="M118.992,122.76h-1.715a.642.642,0,0,0,0,1.283h1.715a.642.642,0,1,0,0-1.283Z" transform="translate(-6.178 -4.483)"/><path d="M88.91,122.76H87.194a.642.642,0,1,0,0,1.283H88.91a.642.642,0,1,0,0-1.283Z" transform="translate(-1.831 -4.483)"/><path d="M98.937,122.76H97.222a.642.642,0,0,0,0,1.283h1.715a.642.642,0,1,0,0-1.283Z" transform="translate(-3.28 -4.483)"/><path d="M141.219,117.691a.642.642,0,0,0-.642.642v.4a3.28,3.28,0,0,1-.181,1.08.641.641,0,1,0,1.211.421,4.553,4.553,0,0,0,.253-1.5v-.4A.642.642,0,0,0,141.219,117.691Z" transform="translate(-9.607 -3.751)"/><path d="M124,122.76H122.29a.642.642,0,0,0,0,1.283H124a.642.642,0,1,0,0-1.283Z" transform="translate(-6.903 -4.483)"/><path d="M141.256,107.664a.642.642,0,0,0-.642.642v1.716a.642.642,0,1,0,1.283,0v-1.716A.642.642,0,0,0,141.256,107.664Z" transform="translate(-9.644 -2.301)"/><path d="M141.256,102.65a.642.642,0,0,0-.642.642v1.715a.642.642,0,1,0,1.283,0v-1.715A.642.642,0,0,0,141.256,102.65Z" transform="translate(-9.644 -1.577)"/><path d="M141.256,112.678a.642.642,0,0,0-.642.642v1.716a.642.642,0,0,0,1.283,0V113.32A.642.642,0,0,0,141.256,112.678Z" transform="translate(-9.644 -3.026)"/><path d="M129.019,122.76H127.3a.642.642,0,0,0,0,1.283h1.715a.642.642,0,0,0,0-1.283Z" transform="translate(-7.628 -4.483)"/><path d="M134.034,122.76h-1.716a.642.642,0,0,0,0,1.283h1.716a.642.642,0,0,0,0-1.283Z" transform="translate(-8.352 -4.483)"/><path d="M138.564,122.105a3.27,3.27,0,0,1-1.331.509.642.642,0,0,0,.093,1.277.717.717,0,0,0,.095-.007,4.541,4.541,0,0,0,1.849-.707.642.642,0,0,0-.706-1.072Z" transform="translate(-9.076 -4.373)"/><path d="M103.951,122.76h-1.715a.642.642,0,0,0,0,1.283h1.715a.642.642,0,1,0,0-1.283Z" transform="translate(-4.005 -4.483)"/><path d="M111.628,93.023h1.715a.642.642,0,0,0,0-1.283h-1.715a.642.642,0,0,0,0,1.283Z" transform="translate(-5.362)"/><path d="M121.656,93.023h1.715a.642.642,0,0,0,0-1.283h-1.715a.642.642,0,0,0,0,1.283Z" transform="translate(-6.811)"/><path d="M101.6,93.023h1.715a.642.642,0,0,0,0-1.283H101.6a.642.642,0,1,0,0,1.283Z" transform="translate(-3.913)"/><path d="M106.614,93.023h1.715a.642.642,0,1,0,0-1.283h-1.715a.642.642,0,0,0,0,1.283Z" transform="translate(-4.637)"/><path d="M116.642,93.023h1.715a.642.642,0,0,0,0-1.283h-1.715a.642.642,0,0,0,0,1.283Z" transform="translate(-6.087)"/><path d="M135.616,96.565l1.541.754a.642.642,0,1,0,.565-1.152l-1.541-.754a.642.642,0,1,0-.565,1.152Z" transform="translate(-8.87 -0.521)"/><path d="M126.669,93.023h.678a3.285,3.285,0,0,1,.858.115.63.63,0,0,0,.167.022.642.642,0,0,0,.168-1.261,4.581,4.581,0,0,0-1.193-.159h-.678a.642.642,0,0,0,0,1.283Z" transform="translate(-7.536 0)"/><path d="M140.332,100.206a.642.642,0,0,0,1.241-.327,4.616,4.616,0,0,0-.906-1.76.642.642,0,0,0-.988.82A3.3,3.3,0,0,1,140.332,100.206Z" transform="translate(-9.488 -0.889)"/><path d="M131.113,94.361l1.542.754a.632.632,0,0,0,.281.065.641.641,0,0,0,.282-1.217l-1.542-.754a.641.641,0,1,0-.563,1.152Z" transform="translate(-8.219 -0.203)"/><path d="M74.527,111.338a.642.642,0,0,0,.642-.642v-1.715a.642.642,0,1,0-1.283,0V110.7A.642.642,0,0,0,74.527,111.338Z" transform="translate(0 -2.399)"/><path d="M77.485,97.71a.635.635,0,0,0,.251-.051l1.578-.672a.641.641,0,1,0-.5-1.18l-1.578.671a.642.642,0,0,0,.252,1.232Z" transform="translate(-0.427 -0.58)"/><path d="M74.527,106.325a.642.642,0,0,0,.642-.642v-1.716a.642.642,0,1,0-1.283,0v1.716A.642.642,0,0,0,74.527,106.325Z" transform="translate(0 -1.674)"/><path d="M75.172,118.979a.633.633,0,0,0-.669-.613.641.641,0,0,0-.613.669,4.518,4.518,0,0,0,.515,1.912.642.642,0,0,0,1.137-.6A3.258,3.258,0,0,1,75.172,118.979Z" transform="translate(-0.001 -3.848)"/><path d="M74.527,116.352a.642.642,0,0,0,.642-.642v-1.716a.642.642,0,1,0-1.283,0v1.716A.642.642,0,0,0,74.527,116.352Z" transform="translate(0 -3.124)"/><path d="M86.713,93.792a.635.635,0,0,0,.251-.051l1.024-.435a3.309,3.309,0,0,1,.478-.161.642.642,0,1,0-.317-1.244,4.522,4.522,0,0,0-.664.224l-1.024.435a.642.642,0,0,0,.252,1.232Z" transform="translate(-1.761 -0.02)"/><path d="M91.573,93.023h1.716a.642.642,0,0,0,0-1.283H91.573a.642.642,0,0,0,0,1.283Z" transform="translate(-2.464)"/><path d="M96.587,93.023H98.3a.642.642,0,0,0,0-1.283H96.587a.642.642,0,0,0,0,1.283Z" transform="translate(-3.188)"/><path d="M82.1,95.747a.635.635,0,0,0,.251-.051l1.578-.672a.641.641,0,0,0-.5-1.18l-1.578.672a.641.641,0,0,0,.252,1.231Z" transform="translate(-1.094 -0.297)"/></g><g transform="translate(66.766 572.91)"><g transform="translate(78.234 96.09)"><path class="p" d="M137.711,101.843a.985.985,0,0,0-.508-1.152l-9.2-4.5a1.011,1.011,0,0,0-.438-.1H89.818a.994.994,0,0,0-.392.078l-10.583,4.5a.988.988,0,0,0-.557,1.176.977.977,0,0,0-.052.258V118.91a1,1,0,0,0,1,1h57.528a1,1,0,0,0,1-1V102.1A.9.9,0,0,0,137.711,101.843Zm-47.69-3.755h37.317l6.16,3.016H82.932Zm45.744,19.822H80.235V103.351h55.53Z" transform="translate(-78.234 -96.09)"/><circle class="p" cx="1.375" cy="1.375" r="1.375" transform="translate(5.682 13.113)"/><circle class="p" cx="1.375" cy="1.375" r="1.375" transform="translate(10.561 13.113)"/><path class="p" d="M133,114.5a.5.5,0,0,1-.5.5h-3a.5.5,0,0,1-.5-.5v-8a.5.5,0,0,1,.5-.5h3a.5.5,0,0,1,.5.5Zm-3-.5h2v-7h-2Z" transform="translate(-78.234 -96.09)"/><path class="p" d="M127,114.5a.5.5,0,0,1-.5.5h-3a.5.5,0,0,1-.5-.5v-8a.5.5,0,0,1,.5-.5h3a.5.5,0,0,1,.5.5Zm-3-.5h2v-7h-2Z" transform="translate(-78.234 -96.09)"/></g></g><g transform="translate(393.988 574.28)"><path class="o" d="M106.925,97.173a13.373,13.373,0,0,0-25.554-.052A8.919,8.919,0,0,0,69.7,103.476a8.143,8.143,0,0,0-7.678,6.375.556.556,0,0,0,.542.678H81.689a12.645,12.645,0,1,0,25.026,0h8.352a.556.556,0,0,0,.547-.461,11.168,11.168,0,0,0-8.688-12.894ZM94.2,123.824a11.479,11.479,0,1,1,11.479-11.479A11.492,11.492,0,0,1,94.2,123.824Zm20.388-14.405H106.5a12.642,12.642,0,0,0-24.6,0H63.3a7.05,7.05,0,0,1,6.755-4.837h0l.085,0a.532.532,0,0,0,.559-.455A7.787,7.787,0,0,1,81.317,98.3a6.229,6.229,0,0,1,2.579,2.279.415.415,0,0,0,.43.2.4.4,0,0,0,.14-.052.416.416,0,0,0,.145-.57,6.746,6.746,0,0,0-2.3-2.261,12.252,12.252,0,0,1,23.476-.609,6.273,6.273,0,0,0-2.559.534.416.416,0,0,0,.318.769,6.507,6.507,0,0,1,3.149-.314,10.118,10.118,0,0,1,7.986,9.889A9.4,9.4,0,0,1,114.59,109.419Z"/><path class="o" d="M118.668,123.958a1.516,1.516,0,0,0-1.329.8l-2.019-.583c0-.044.007-.086.007-.131a3.632,3.632,0,0,0-1.42-2.879l1.1-1.634a1.108,1.108,0,0,0,.147.015,1.214,1.214,0,1,0-.794-.306l-1.041,1.552a3.619,3.619,0,0,0-4.391.89l-1.5-1.237a1.508,1.508,0,1,0-2.851-.686,1.513,1.513,0,0,0,1.511,1.511,1.5,1.5,0,0,0,.886-.292l1.546,1.278a3.623,3.623,0,0,0,.343,4.079l-1.009.84a1.295,1.295,0,1,0,.451.535l1.052-.875a3.609,3.609,0,0,0,3.57.625l.855,2.282a2.246,2.246,0,1,0,.662-.225l-.884-2.36a3.644,3.644,0,0,0,1.667-2.283l1.925.556c0,.016-.005.033-.005.05a1.521,1.521,0,1,0,1.52-1.523Zm-3.519-6.117a.5.5,0,1,1-.5.5A.5.5,0,0,1,115.149,117.841Zm-9.061,2.73a.812.812,0,1,1,.812-.812A.813.813,0,0,1,106.088,120.571Zm1.058,8.24a.576.576,0,1,1,.576-.576A.576.576,0,0,1,107.146,128.811Zm7.61,1.375a1.357,1.357,0,1,1-1.358,1.357A1.359,1.359,0,0,1,114.756,130.186Zm-3.068-3.2a2.94,2.94,0,1,1,2.939-2.94A2.944,2.944,0,0,1,111.687,126.983Zm6.98-.68a.823.823,0,1,1,.822-.822A.823.823,0,0,1,118.668,126.3Z" transform="translate(-17.745 -12.265)"/></g><g transform="translate(294.574 574.255)"><path class="o" d="M106.339,97.2a13.373,13.373,0,0,0-25.555-.052A8.919,8.919,0,0,0,69.117,103.5a8.143,8.143,0,0,0-7.678,6.375.556.556,0,0,0,.542.678H81.128a12.645,12.645,0,1,0,25.025,0h8.327a.556.556,0,0,0,.547-.461A11.168,11.168,0,0,0,106.339,97.2Zm-12.7,26.652a11.479,11.479,0,1,1,11.478-11.479A11.492,11.492,0,0,1,93.641,123.849ZM114,109.444H105.94a12.642,12.642,0,0,0-24.6,0H62.71a7.05,7.05,0,0,1,6.755-4.837h0l.085,0a.532.532,0,0,0,.559-.455,7.787,7.787,0,0,1,10.616-5.835,6.229,6.229,0,0,1,2.58,2.279.415.415,0,0,0,.429.2.4.4,0,0,0,.14-.052.416.416,0,0,0,.145-.57,6.746,6.746,0,0,0-2.3-2.261A12.252,12.252,0,0,1,105.2,97.3a6.273,6.273,0,0,0-2.559.534.416.416,0,0,0,.318.769,6.508,6.508,0,0,1,3.149-.314,10.118,10.118,0,0,1,7.986,9.889A9.31,9.31,0,0,1,114,109.444Z" transform="translate(0 0)"/><g transform="translate(87.206 106.204)"><path class="o" d="M116.625,120.275v-.007h0Z" transform="translate(-110.217 -119.762)"/><path class="o" d="M118.216,120.606a41.24,41.24,0,0,0-6.088-1.2.232.232,0,0,0-.067,0,.775.775,0,0,0-.093,0,41.215,41.215,0,0,0-6.089,1.2.31.31,0,0,0-.241.3v6.417a7.333,7.333,0,0,0,6.352,6.75.282.282,0,0,0,.057.005l.038,0a6.963,6.963,0,0,0,6.371-6.761v-6.409A.31.31,0,0,0,118.216,120.606Zm-6.092-.583a33.646,33.646,0,0,1,4.884.943l.826.19v6.162a6.35,6.35,0,0,1-5.779,6.138,6.617,6.617,0,0,1-5.795-6.138v-6.162c.564-.132,1.073-.248,1.532-.351a28.661,28.661,0,0,1,4.169-.783l0,0A.379.379,0,0,0,112.124,120.023Zm-.079-.109,0-.007h0Z" transform="translate(-105.637 -119.401)"/><path class="o" d="M112.339,123.028c-.52.068-1.794.286-4.805.98a.264.264,0,0,0-.205.256v4.555A6.116,6.116,0,0,0,112.7,134.5a.23.23,0,0,0,.048.005l.036,0a5.946,5.946,0,0,0,5.387-5.682v-3.172l.05-.109-.05-.014v-1.265a.265.265,0,0,0-.2-.256c-3.228-.743-4.463-.941-4.926-.993h-.29l-.322,0Zm5.31,3.4v2.391a5.931,5.931,0,0,1-.683,2.457l-.2.333a5.419,5.419,0,0,1-.757.915l-.271.234a5.993,5.993,0,0,1-2.98,1.222,7.144,7.144,0,0,1-2.127-.76A30.11,30.11,0,0,0,117.648,126.428Zm-9.794-1.954,1.172-.264c.031-.006,3.086-.623,3.444-.669h.543c.281.033.993.139,2.636.49a29.943,29.943,0,0,1-7.172,6.984,5.527,5.527,0,0,1-.623-2.2l0-1.856Zm9.794,0v.847l-.019.037a28.46,28.46,0,0,1-7.563,7.5c-.036-.024-.069-.05-.1-.073l-.3-.251a5.281,5.281,0,0,1-.731-.8l-.13-.187a30.456,30.456,0,0,0,7.508-7.376l.125.027C116.8,124.28,117.2,124.371,117.648,124.473Z" transform="translate(-106.342 -120.908)"/></g></g></g></g></svg>